<svg width="223" height="183" viewBox="0 0 223 183" fill="none" xmlns="http://www.w3.org/2000/svg">
<path d="M222.457 86.2171C221.563 83.5454 219.276 81.4866 216.858 79.9425C214.65 78.5209 212.126 77.565 209.708 76.5355C208.578 76.0453 207.447 75.5551 206.37 74.9914C205.87 74.7218 205.371 74.4277 204.898 74.1335C204.845 74.0845 204.792 74.06 204.74 74.0355C204.714 74.011 204.661 73.962 204.582 73.9129C204.24 73.6433 203.925 73.3492 203.636 73.0551C201.822 71.3149 200.639 68.6678 199.377 66.4128C197.853 63.6922 196.013 61.3392 193.384 59.501C189.02 56.4372 182.869 56.094 177.822 57.5892C172.539 59.1578 168.017 62.5402 164.285 66.2658C160.526 70.0158 157.345 74.3786 154.953 79.0111C153.849 81.1435 152.876 83.3984 152.245 85.7024C151.877 87.0504 152.535 88.0798 153.533 88.6191C153.665 88.8642 153.823 89.0848 154.033 89.3054C154.322 89.575 154.585 89.8691 154.848 90.1632C154.874 90.1877 154.953 90.2858 155.032 90.3838C155.137 90.5063 155.242 90.6289 155.347 90.776C155.952 91.5603 156.53 92.3936 157.082 93.227C158.265 95.0162 159.343 96.879 160.421 98.7173C162.813 102.761 165.231 106.757 168.28 110.409C171.067 113.718 174.694 116.634 179.137 117.688C181.555 118.276 184.079 118.178 186.523 117.664C189.678 117.002 191.965 115.164 193.883 112.835C194.646 111.904 195.356 110.899 196.118 109.943C196.302 109.722 196.617 109.355 197.038 108.963C197.616 108.399 197.59 108.423 198.3 108.007C201.191 106.413 204.714 107.565 207.868 106.683C210.759 105.874 213.52 103.864 215.807 102.075C218.199 100.188 220.328 97.8104 221.668 95.1388C223.009 92.3446 223.456 89.2073 222.457 86.2171Z" fill="#AEE5F7"/>
<path d="M79.6679 60.947C76.461 57.8097 72.0974 55.7754 67.7601 54.3538C64.7634 53.3734 61.5564 52.6871 58.3232 52.4665C56.9563 47.3684 53.8019 41.9762 49.2543 38.8634C47.0462 37.3437 43.997 36.4859 41.2631 36.682C38.6082 36.878 36.6367 38.1281 35.0858 40.0889C33.9029 41.5595 33.2983 43.3977 32.5097 45.0644C31.5371 47.0988 30.8536 48.3488 29.0924 49.5008C26.6741 51.0694 23.6248 51.339 20.7596 51.5841C17.4212 51.8538 14.0302 52.0253 10.8758 53.1283C7.51109 54.2803 4.35669 56.4372 2.22747 59.1333C0.334835 61.5353 -0.296044 64.2804 0.124542 67.2217C1.04457 73.4472 8.14197 76.2659 12.453 79.7464C13.2942 80.4081 14.0565 81.1434 14.7925 81.9033C15.7651 82.9082 16.0543 83.3249 16.8691 84.3543C18.8144 86.8543 20.4967 89.5995 22.9151 91.7318C27.9095 96.1437 34.9018 97.1976 41.4209 95.6535C44.8381 94.8446 47.756 93.276 50.3846 91.1681C52.4875 89.4769 54.3802 87.3935 56.562 86.021C59.0066 84.4768 61.1359 84.2317 63.9485 84.3788C66.5772 84.5258 69.1533 85.0651 71.8082 84.9425C78.3799 84.5994 82.7698 79.4277 83.979 73.6923C85.0041 68.9129 83.1903 64.403 79.6679 60.947Z" fill="#AEE5F7"/>
<path d="M199.193 78.6924C197.485 76.9522 194.935 76.1188 192.464 76.7071C189.388 77.4424 188.127 80.7022 187.838 83.3003C187.627 85.1141 190.65 85.6288 190.86 83.7905C191.071 81.8787 191.728 79.8934 193.542 79.3787C193.883 79.2807 194.803 79.3787 195.25 79.5258C195.986 79.7954 196.617 80.212 197.064 80.7022C201.06 84.967 194.987 89.6485 191.018 91.5112C189.283 92.3446 190.308 95.0407 192.096 94.2074C195.855 92.4181 199.772 89.9181 201.06 85.9719C201.875 83.3984 201.139 80.6532 199.193 78.6924Z" fill="white"/>
<path d="M192.175 98.3986C191.991 98.3741 191.807 98.3496 191.623 98.3006C190.808 98.1535 189.993 98.6927 189.835 99.4525C189.678 100.212 190.256 100.972 191.071 101.119C191.255 101.144 191.439 101.168 191.623 101.217C192.438 101.364 193.253 100.825 193.41 100.065C193.568 99.3055 193.016 98.5457 192.175 98.3986Z" fill="white"/>
<path d="M49.0703 60.6039H42.4198V54.3783H35.3224V60.6039H28.6456V67.2216H35.3224V73.4227H42.4198V67.2216H49.0703V60.6039Z" fill="white"/>
<path d="M19.8921 77.5649H16.0017V73.9374H11.8747V77.5649H7.98425V81.413H11.8747V85.0406H16.0017V81.413H19.8921V77.5649Z" stroke="#42BFFF" stroke-width="2" stroke-miterlimit="10"/>
<path d="M28.1198 38.5937H23.4934V34.2799H18.5777V38.5937H13.9513V43.1771H18.5777V47.4909H23.4934V43.1771H28.1198V38.5937Z" fill="#AEE5F7"/>
<path d="M165.573 61.1431C165.704 62.2461 164.863 63.202 163.68 63.3245C162.497 63.4471 161.472 62.6627 161.341 61.5598L160.631 55.3342C160.499 54.2312 161.341 53.2753 162.523 53.1528C163.706 53.0302 164.732 53.8145 164.863 54.9175L165.573 61.1431Z" stroke="#42BFFF" stroke-width="2" stroke-miterlimit="10"/>
<path d="M174.694 64.3049C174.142 65.2608 172.828 65.6285 171.803 65.1138C170.778 64.599 170.383 63.3735 170.935 62.4176L174.142 56.9274C174.694 55.9715 175.982 55.6038 177.034 56.1185C178.059 56.6332 178.453 57.8342 177.901 58.8146L174.694 64.3049Z" stroke="#42BFFF" stroke-width="2" stroke-miterlimit="10"/>
<path d="M178.558 70.8246C177.481 71.2658 176.219 70.8246 175.746 69.8442C175.273 68.8393 175.746 67.6628 176.797 67.2216L182.922 64.6481C184 64.2069 185.261 64.6481 185.735 65.6285C186.208 66.6334 185.735 67.8099 184.683 68.2511L178.558 70.8246Z" stroke="#42BFFF" stroke-width="2" stroke-miterlimit="10"/>
<path d="M147.514 161.194C147.514 168.155 141.468 173.792 133.976 173.792H56.2202C48.7548 173.792 42.6826 168.155 42.6826 161.194V14.6228C42.6826 7.66186 48.7285 2 56.2202 2H133.976C141.442 2 147.514 7.63734 147.514 14.6228V161.194Z" fill="#D7F1FF"/>
<path d="M147.014 16.8532V14.6228C147.014 7.66186 140.968 2 133.477 2H55.7208C48.2554 2 42.1832 7.63734 42.1832 14.6228V16.8777H147.014V16.8532Z" fill="#5BC8FF"/>
<path d="M128.693 11.4364C128.693 12.5394 127.457 13.4463 125.906 13.4463H68.0755C66.5509 13.4463 65.2891 12.5394 65.2891 11.4364V7.44126C65.2891 6.3383 66.5246 5.43143 68.0755 5.43143H125.932C127.457 5.43143 128.719 6.3383 128.719 7.44126V11.4364H128.693Z" fill="#D7F1FF"/>
<path d="M125.985 11.1178C125.302 10.6766 124.618 10.2354 123.961 9.79424C124.618 8.7403 124.303 7.36773 123.199 6.65693C122.042 5.89712 120.439 6.16673 119.65 7.24518C118.835 8.32363 119.124 9.81875 120.281 10.5541C121.385 11.2648 122.883 11.0688 123.698 10.1129C124.382 10.5541 125.065 10.9952 125.722 11.4364C125.932 11.5835 126.169 11.2648 125.985 11.1178ZM120.491 10.2599C119.518 9.62267 119.282 8.37265 119.965 7.46577C120.649 6.55889 121.989 6.3383 122.962 6.97557C123.935 7.61283 124.171 8.83834 123.514 9.74522C123.514 9.74522 123.514 9.76973 123.488 9.76973C122.804 10.6521 121.464 10.8972 120.491 10.2599Z" fill="#5BC8FF"/>
<path d="M129.507 164.38C129.507 165.998 128.088 167.321 126.353 167.321H60.5575C58.8226 167.321 57.4031 165.998 57.4031 164.38V158.498C57.4031 156.88 58.8226 155.556 60.5575 155.556H126.353C128.088 155.556 129.507 156.88 129.507 158.498V164.38Z" fill="#42C0FF"/>
<path d="M147.304 108.742H42.2095V150.826H147.304V108.742Z" fill="#42C0FF"/>
<path d="M52.0931 131.044C80.2987 131.044 108.531 131.044 136.736 131.044C137.577 131.044 137.577 129.818 136.736 129.818C108.531 129.818 80.2987 129.818 52.0931 129.818C51.2256 129.818 51.2256 131.044 52.0931 131.044Z" fill="#D7F1FF"/>
<path d="M52.172 120.656C80.3775 120.656 108.609 120.656 136.815 120.656C137.656 120.656 137.656 119.431 136.815 119.431C108.609 119.431 80.3775 119.431 52.172 119.431C51.3308 119.431 51.3308 120.656 52.172 120.656Z" fill="#D7F1FF"/>
<path d="M52.0931 141.757C80.2987 141.757 108.531 141.757 136.736 141.757C137.577 141.757 137.577 140.531 136.736 140.531C108.531 140.531 80.2987 140.531 52.0931 140.531C51.2256 140.531 51.2256 141.757 52.0931 141.757Z" fill="#D7F1FF"/>
<path d="M49.3332 35.3338C77.5387 35.3338 105.771 35.3338 133.976 35.3338C134.817 35.3338 134.817 34.1083 133.976 34.1083C105.771 34.1083 77.5387 34.1083 49.3332 34.1083C48.492 34.1083 48.492 35.3338 49.3332 35.3338Z" fill="#5BC8FF"/>
<path d="M100.855 26.9269C100.855 28.2504 99.6983 29.3289 98.2788 29.3289H50.7788C49.3594 29.3289 48.2028 28.2504 48.2028 26.9269V22.9072C48.2028 21.5836 49.3594 20.5052 50.7788 20.5052H98.2788C99.6983 20.5052 100.855 21.5836 100.855 22.9072V26.9269Z" fill="#42C0FF"/>
<path d="M147.014 40.8487H42.2095V108.742H147.014V40.8487Z" fill="#D5FFF5"/>
<path d="M132.662 86.4621C132.951 87.2465 132.504 88.1288 131.663 88.3984L106.349 96.6584C105.508 96.928 104.561 96.5113 104.272 95.727L89.9198 57.5156C89.6307 56.7313 90.0776 55.8489 90.9187 55.5793L116.233 47.3194C117.074 47.0497 118.02 47.4664 118.309 48.2507L132.662 86.4621Z" fill="#42C0FF"/>
<path d="M103.379 61.5843C104.141 63.6186 102.984 65.8736 100.803 66.5844C98.6207 67.2952 96.2024 66.2167 95.4401 64.1824C94.6777 62.148 95.8344 59.8931 98.0161 59.1823C100.198 58.4715 102.59 59.5499 103.379 61.5843Z" fill="white"/>
<path d="M107.663 73.0305C108.426 75.0649 107.269 77.3198 105.087 78.0306C102.905 78.7414 100.487 77.663 99.7248 75.6286C98.9625 73.5943 100.119 71.3393 102.301 70.6286C104.509 69.9178 106.901 70.9962 107.663 73.0305Z" fill="white"/>
<path d="M112.079 84.7954C112.842 86.8298 111.685 89.0847 109.503 89.7955C107.322 90.5063 104.903 89.4279 104.141 87.3935C103.379 85.3592 104.535 83.1042 106.717 82.3934C108.925 81.6826 111.317 82.7366 112.079 84.7954Z" fill="white"/>
<path d="M117.521 56.9273C118.283 58.9617 117.127 61.2166 114.945 61.9274C112.763 62.6382 110.345 61.5598 109.582 59.5254C108.82 57.4911 109.977 55.2361 112.158 54.5253C114.366 53.8145 116.759 54.893 117.521 56.9273Z" fill="white"/>
<path d="M121.832 68.3736C122.594 70.408 121.438 72.6629 119.256 73.3737C117.074 74.0845 114.656 73.006 113.893 70.9717C113.131 68.9373 114.288 66.6824 116.469 65.9716C118.677 65.2608 121.069 66.3393 121.832 68.3736Z" fill="white"/>
<path d="M126.248 80.1385C127.01 82.1728 125.854 84.4278 123.672 85.1386C121.49 85.8494 119.072 84.7709 118.309 82.7366C117.547 80.7022 118.704 78.4473 120.886 77.7365C123.094 77.0257 125.486 78.0796 126.248 80.1385Z" fill="white"/>
<path d="M93.3107 95.727C93.3107 97.2221 92.1015 98.4231 90.6032 98.4231H61.7404C60.2421 98.4231 59.0329 97.2221 59.0329 95.727V64.501C59.0329 63.0059 60.2421 61.8049 61.7404 61.8049H90.6032C92.1015 61.8049 93.3107 63.0059 93.3107 64.501V95.727Z" fill="#AEE5F7"/>
<path d="M96.2286 63.349C96.2286 64.3785 94.7565 65.2363 92.9427 65.2363H59.4273C57.6135 65.2363 56.1414 64.403 56.1414 63.349V58.496C56.1414 57.4666 57.6135 56.6087 59.4273 56.6087H92.9427C94.7565 56.6087 96.2286 57.4421 96.2286 58.496V63.349Z" fill="#42C0FF"/>
<path d="M93.3107 72.0011H59.0329V87.6876H93.3107V72.0011Z" fill="#42C0FF"/>
<path d="M64.2903 92.1975C64.2903 92.7613 63.8171 93.2024 63.2125 93.2024C62.6079 93.2024 62.1348 92.7613 62.1348 92.1975V68.8638C62.1348 68.3001 62.6079 67.8589 63.2125 67.8589C63.8171 67.8589 64.2903 68.3001 64.2903 68.8638V92.1975Z" fill="white"/>
<path d="M119.939 90.335C121.017 94.6242 117.705 99.0116 112.526 100.139L90.393 105.017C85.2146 106.169 80.1412 103.619 79.0635 99.3302C77.9857 95.0409 81.2979 90.6536 86.4763 89.5261L108.61 84.6486C113.788 83.5211 118.861 86.0702 119.939 90.335Z" fill="white"/>
<path d="M119.939 90.3348C118.861 86.0455 113.788 83.5209 108.61 84.6484L98.9888 86.7808C96.5178 92.2956 97.9373 99.3055 103.3 102.198L112.526 100.163C117.705 99.0114 121.017 94.624 119.939 90.3348Z" fill="#AEE5F7"/>
<path d="M147.093 161.194C147.093 168.155 141.047 173.792 133.556 173.792H55.8259C48.3605 173.792 42.2883 168.155 42.2883 161.194V14.6228C42.2883 7.66185 48.3342 2 55.8259 2H133.582C141.047 2 147.119 7.63734 147.119 14.6228V161.194H147.093Z" stroke="#D7F1FF" stroke-width="3" stroke-miterlimit="10"/>
<path d="M197.721 152.468C194.961 144.012 186.418 117.002 175.378 119.036C174.852 119.134 174.458 119.379 174.142 119.722C167.807 115.164 145.253 113.325 139.654 122.86C132.767 134.6 126.116 163.351 126.116 182.836H190.308C190.308 177.836 190.177 173.155 189.914 168.718C190.86 169.209 191.675 169.307 192.28 168.865C196.276 166.096 200.587 161.218 197.721 152.468Z" fill="#D5FFF5"/>
<path d="M184.683 137.198C188.468 147.37 189.914 158.056 189.914 168.792C189.914 169.258 190.703 169.258 190.703 168.792C190.676 157.983 189.231 147.223 185.419 137.002C185.288 136.561 184.525 136.733 184.683 137.198Z" fill="#76E8E8"/>
<path d="M144.07 141.904C142.703 139.821 141.179 137.835 139.786 135.777C138.787 134.282 137.84 132.737 136.736 131.291C136.473 131.144 136.184 130.997 135.895 130.85C131.453 142.37 127.667 159.429 126.484 174.013C127.378 173.547 128.246 173.057 129.061 172.493C129.192 172.419 129.271 172.346 129.323 172.321C129.35 172.297 129.402 172.272 129.455 172.223C129.718 172.027 129.981 171.807 130.243 171.611C130.769 171.194 131.269 170.753 131.768 170.287C132.346 169.748 132.898 169.184 133.424 168.62C133.661 168.375 133.871 168.106 134.108 167.86C134.108 167.86 134.555 167.321 134.555 167.346C135.396 166.292 136.184 165.213 136.947 164.11C140.811 158.424 145.122 149.429 145.122 145.287L144.07 141.904Z" fill="#444444"/>
<path d="M158.318 149.429C158.318 150.654 157.24 151.659 155.926 151.659C154.611 151.659 153.533 150.654 153.533 149.429C153.533 148.203 154.611 147.198 155.926 147.198C157.24 147.198 158.318 148.179 158.318 149.429Z" fill="#76E8E8"/>
<path d="M152.324 134.625C152.324 135.85 151.247 136.855 149.932 136.855C148.618 136.855 147.54 135.85 147.54 134.625C147.54 133.399 148.618 132.394 149.932 132.394C151.247 132.394 152.324 133.399 152.324 134.625Z" fill="#76E8E8"/>
<path d="M165.678 142.713C165.678 143.939 164.6 144.943 163.286 144.943C161.971 144.943 160.894 143.939 160.894 142.713C160.894 141.488 161.971 140.483 163.286 140.483C164.6 140.483 165.678 141.463 165.678 142.713Z" fill="#76E8E8"/>
<path d="M167.308 157.027C167.308 158.253 166.23 159.257 164.916 159.257C163.601 159.257 162.523 158.253 162.523 157.027C162.523 155.801 163.601 154.797 164.916 154.797C166.23 154.797 167.308 155.801 167.308 157.027Z" fill="#76E8E8"/>
<path d="M147.514 158.743C147.514 159.968 146.436 160.973 145.122 160.973C143.807 160.973 142.73 159.968 142.73 158.743C142.73 157.517 143.807 156.512 145.122 156.512C146.436 156.512 147.514 157.517 147.514 158.743Z" fill="#76E8E8"/>
<path d="M157.108 167.811C157.108 169.037 156.031 170.042 154.716 170.042C153.402 170.042 152.324 169.037 152.324 167.811C152.324 166.586 153.402 165.581 154.716 165.581C156.031 165.581 157.108 166.586 157.108 167.811Z" fill="#76E8E8"/>
<path d="M139.707 167.811C139.707 169.037 138.629 170.042 137.315 170.042C136 170.042 134.922 169.037 134.922 167.811C134.922 166.586 136 165.581 137.315 165.581C138.629 165.581 139.707 166.586 139.707 167.811Z" fill="#76E8E8"/>
<path d="M147.514 177.64C147.514 178.866 146.436 179.871 145.122 179.871C143.807 179.871 142.73 178.866 142.73 177.64C142.73 176.415 143.807 175.41 145.122 175.41C146.436 175.41 147.514 176.415 147.514 177.64Z" fill="#76E8E8"/>
<path d="M129.376 178.866C129.376 180.091 128.298 181.096 126.984 181.096C125.67 181.096 124.592 180.091 124.592 178.866C124.592 177.64 125.67 176.635 126.984 176.635C128.298 176.635 129.376 177.64 129.376 178.866Z" fill="#76E8E8"/>
<path d="M168.096 178.866C168.096 180.091 167.019 181.096 165.704 181.096C164.39 181.096 163.312 180.091 163.312 178.866C163.312 177.64 164.39 176.635 165.704 176.635C167.019 176.635 168.096 177.64 168.096 178.866Z" fill="#76E8E8"/>
<path d="M176.455 167.811C176.455 169.037 175.378 170.042 174.063 170.042C172.749 170.042 171.671 169.037 171.671 167.811C171.671 166.586 172.749 165.581 174.063 165.581C175.378 165.581 176.455 166.586 176.455 167.811Z" fill="#76E8E8"/>
<path d="M177.875 148.154C177.875 149.38 176.797 150.385 175.483 150.385C174.169 150.385 173.091 149.38 173.091 148.154C173.091 146.929 174.169 145.924 175.483 145.924C176.797 145.924 177.875 146.929 177.875 148.154Z" fill="#76E8E8"/>
<path d="M186.944 157.787C186.944 159.012 185.866 160.017 184.552 160.017C183.237 160.017 182.16 159.012 182.16 157.787C182.16 156.561 183.237 155.556 184.552 155.556C185.866 155.556 186.944 156.561 186.944 157.787Z" fill="#76E8E8"/>
<path d="M187.154 178.866C187.154 180.091 186.076 181.096 184.762 181.096C183.448 181.096 182.37 180.091 182.37 178.866C182.37 177.64 183.448 176.635 184.762 176.635C186.076 176.635 187.154 177.64 187.154 178.866Z" fill="#76E8E8"/>
<path d="M184.525 137.394C184.525 138.62 183.448 139.625 182.133 139.625C180.819 139.625 179.741 138.62 179.741 137.394C179.741 136.169 180.819 135.164 182.133 135.164C183.448 135.164 184.525 136.169 184.525 137.394Z" fill="#76E8E8"/>
<path d="M194.593 145.924C194.593 147.149 193.515 148.154 192.201 148.154C190.887 148.154 189.809 147.149 189.809 145.924C189.809 144.698 190.887 143.693 192.201 143.693C193.515 143.669 194.593 144.674 194.593 145.924Z" fill="#76E8E8"/>
<path d="M195.119 163.326C195.119 164.552 194.041 165.557 192.727 165.557C191.413 165.557 190.335 164.552 190.335 163.326C190.335 162.101 191.413 161.096 192.727 161.096C194.041 161.096 195.119 162.101 195.119 163.326Z" fill="#76E8E8"/>
<path d="M126.563 108.105C126.563 107.051 124.671 104.551 123.987 102.271C122.384 96.8545 120.938 90.3348 119.808 90.3348C118.204 90.3348 117.153 91.0701 117.468 92.7858C118.204 96.83 118.572 100.506 118.73 102.884C113.893 104.257 107.952 107.418 107.952 109.6C107.952 112.443 112.027 118.914 114.708 120.237C118.782 122.272 126.222 120.58 126.8 116.977C127.037 115.531 127.142 111.561 126.563 108.105Z" fill="#F9D6DF"/>
<path d="M117.889 119.306C116.785 119.624 115.681 119.919 114.577 120.213C114.603 120.237 114.656 120.262 114.682 120.286C118.756 122.321 126.195 120.629 126.774 117.026C126.774 117.002 126.774 116.953 126.8 116.928C126.59 116.977 126.379 117.026 126.169 117.075C123.435 117.835 120.675 118.669 117.889 119.306Z" fill="#444444"/>
<path d="M117.994 103.203C118.362 104.134 118.782 105.09 118.993 106.046C119.098 106.511 119.86 106.315 119.755 105.85C119.519 104.869 119.124 103.938 118.756 103.007C118.572 102.565 117.81 102.737 117.994 103.203Z" fill="#EAB6C3"/>
<path d="M113.657 105.09C114.103 105.899 114.577 106.757 114.892 107.614C115.05 108.056 115.812 107.86 115.654 107.418C115.313 106.487 114.839 105.58 114.34 104.722C114.103 104.306 113.42 104.673 113.657 105.09Z" fill="#EAB6C3"/>
<path d="M109.582 107.443C109.95 108.399 110.581 109.11 111.264 109.894C111.58 110.262 112.132 109.747 111.817 109.379C111.238 108.717 110.66 108.08 110.344 107.247C110.187 106.806 109.424 107.002 109.582 107.443Z" fill="#EAB6C3"/>
<path d="M143.834 120.629C139.812 121.781 135.185 125.58 131.19 130.482C130.349 123.718 126.8 117.002 126.8 117.002C121.884 123.374 114.708 120.262 114.708 120.262C109.556 139.38 115.05 155.556 122.305 159.527C122.305 159.527 126.8 162.321 133.45 160.458C137.078 159.453 148.171 149.012 148.171 143.473C148.171 137.909 147.461 119.6 143.834 120.629Z" fill="#D5FFF5"/>
<path d="M121.753 125.924C123.54 125.556 125.354 124.747 126.669 123.767C127.457 123.154 128.219 122.517 128.929 121.83C127.851 118.963 126.8 117.002 126.8 117.002C121.884 123.374 114.708 120.262 114.708 120.262C114.287 121.83 113.946 123.375 113.657 124.894C116.312 125.875 119.098 126.463 121.753 125.924Z" fill="white"/>
<path d="M131.058 129.404C127.51 132.933 123.83 137.836 124.119 142.909C124.145 143.375 124.934 143.375 124.907 142.909C124.644 138.056 128.219 133.326 131.637 129.943C131.978 129.576 131.426 129.061 131.058 129.404Z" fill="#42C0FF"/>
<path d="M119.86 134.625C119.86 135.85 118.782 136.855 117.468 136.855C116.154 136.855 115.076 135.85 115.076 134.625C115.076 133.399 116.154 132.394 117.468 132.394C118.782 132.394 119.86 133.399 119.86 134.625Z" fill="#76E8E8"/>
<path d="M126.879 149.429C126.879 150.654 125.801 151.659 124.487 151.659C123.172 151.659 122.095 150.654 122.095 149.429C122.095 148.203 123.172 147.198 124.487 147.198C125.827 147.174 126.879 148.179 126.879 149.429Z" fill="#76E8E8"/>
<path d="M136.158 157.787C136.158 159.012 135.08 160.017 133.766 160.017C132.452 160.017 131.374 159.012 131.374 157.787C131.374 156.561 132.452 155.556 133.766 155.556C135.08 155.556 136.158 156.561 136.158 157.787Z" fill="#76E8E8"/>
<path d="M145.937 148.595C145.937 149.821 144.859 150.826 143.544 150.826C142.23 150.826 141.152 149.821 141.152 148.595C141.152 147.37 142.23 146.365 143.544 146.365C144.859 146.365 145.937 147.345 145.937 148.595Z" fill="#76E8E8"/>
<path d="M136.158 139.625C136.158 140.85 135.08 141.855 133.766 141.855C132.452 141.855 131.374 140.85 131.374 139.625C131.374 138.399 132.452 137.394 133.766 137.394C135.08 137.394 136.158 138.399 136.158 139.625Z" fill="#76E8E8"/>
<path d="M155.4 87.8592C156.977 89.771 156.846 92.1485 155.61 93.7907C154.427 95.3348 150.852 95.2368 150.852 95.2368C152.219 99.9427 144.307 106.708 144.307 106.708C139.891 106.708 135.974 105.261 135.711 96.3643C135.685 95.7025 134.239 95.1142 134.134 94.4279C134.002 93.5946 136.631 92.6387 136.631 91.7563C136.631 84.3052 138.392 80.8493 138.392 80.8493C138.392 80.8493 140.863 83.7905 143.334 85.3837C146.62 87.5406 150.3 88.0308 150.3 88.0308C150.3 88.0308 153.796 85.9229 155.4 87.8592Z" fill="#F9D6DF"/>
<path d="M140.285 91.0946C140.692 91.0946 141.021 90.3813 141.021 89.5014C141.021 88.6215 140.692 87.9082 140.285 87.9082C139.879 87.9082 139.549 88.6215 139.549 89.5014C139.549 90.3813 139.879 91.0946 140.285 91.0946Z" fill="#444444"/>
<path d="M144.228 96.1192C145.607 96.1192 146.725 95.0767 146.725 93.7907C146.725 92.5047 145.607 91.4622 144.228 91.4622C142.849 91.4622 141.731 92.5047 141.731 93.7907C141.731 95.0767 142.849 96.1192 144.228 96.1192Z" fill="#FFC0C0"/>
<path d="M153.744 88.8887C152.14 88.7416 151.089 90.0897 151.063 91.4622C151.063 91.9279 151.851 91.9279 151.851 91.4622C151.877 90.4573 152.587 89.5259 153.744 89.624C154.243 89.673 154.243 88.9377 153.744 88.8887Z" fill="#444444"/>
<path d="M144.701 85.3347C144.622 85.8004 143.676 86.07 142.572 85.9229L139.286 85.5063C138.182 85.3592 137.341 84.869 137.394 84.3788C137.472 83.9131 138.419 83.6435 139.523 83.7905L142.809 84.2072C143.913 84.3543 144.754 84.869 144.701 85.3347Z" fill="#444444"/>
<path d="M189.757 113.129C187.627 109.551 184.131 106.683 180.162 104.992C178.033 104.085 175.956 103.08 174.221 101.609C174.063 101.462 173.906 101.34 173.774 101.193C172.092 99.379 171.251 97.2711 171.671 94.8691C171.987 93.0064 173.064 91.2416 173.774 89.4769C175.22 85.9965 175.351 82.2219 173.853 78.7414C170.83 71.7805 163.601 67.8099 155.873 66.7314C155.82 66.7314 155.768 66.7314 155.742 66.7314C154.716 66.5844 153.665 66.5108 152.64 66.5108C144.938 66.5108 139.286 70.0158 137.867 75.1629C137.84 75.1875 137.84 75.212 137.84 75.2365C135.921 79.3297 136.999 83.619 140.732 86.4376C143.361 88.423 146.988 88.7171 150.221 88.0308C150.3 88.0308 150.327 88.0553 150.327 88.0553C150.327 88.0553 150.353 88.0308 150.432 88.0063C150.458 88.0063 150.484 88.0063 150.484 87.9818C150.589 87.9573 150.668 87.9082 150.695 87.8592C151.641 87.369 154.138 86.3396 155.426 87.8837C157.003 89.7955 156.872 92.173 155.636 93.8152C154.716 95.0407 152.245 95.2368 151.273 95.2613C151.194 95.2368 151.141 95.2368 151.063 95.2613C150.931 95.2613 150.852 95.2613 150.852 95.2613C150.852 95.3103 150.879 95.3593 150.879 95.3839L150.852 95.4084C149.827 97.3692 148.67 99.2565 147.067 100.85C145.437 102.467 143.387 103.668 141.415 104.82C137.499 107.1 132.872 108.325 131.032 112.713C129.665 115.972 130.191 119.551 132.399 122.37C133.135 123.325 134.029 124.11 135.028 124.747C135.685 125.335 136.473 125.654 137.367 125.875C138.787 126.389 140.338 126.659 141.888 126.683C143.15 126.953 144.517 127.345 145.989 128.031C153.98 131.732 156.556 139.306 166.414 139.625C175.22 139.919 178.821 135.041 182.975 132.1C183.711 131.585 184.368 131.046 184.92 130.458C184.946 130.433 184.972 130.433 184.999 130.384C187.233 128.35 189.31 126.144 190.571 123.424C192.149 120.017 191.675 116.365 189.757 113.129ZM141.678 86.1925C138.971 84.5013 137.577 81.8297 137.656 79.0601C137.814 79.6973 138.077 80.3101 138.419 80.9228C138.708 81.266 141.021 83.9131 143.308 85.4327C145.017 86.5602 146.83 87.222 148.197 87.6141C145.91 87.7612 143.571 87.369 141.678 86.1925ZM144.281 106.708C143.045 107.492 143.571 107.173 143.045 107.492C139.549 109.551 130.953 115.115 133.45 122.247C133.503 122.37 133.529 122.468 133.582 122.59C133.161 122.149 132.767 121.659 132.399 121.12C130.375 118.007 130.69 114.159 132.793 111.168C134.081 109.306 136.289 108.203 138.34 107.198C140.39 106.193 142.388 105.163 144.307 103.938C147.251 102.051 149.328 99.6731 150.957 96.8054C150.642 101.291 144.281 106.708 144.281 106.708ZM170.383 76.3394C169.621 74.5747 168.438 73.0061 166.94 71.658C170.278 73.9619 172.802 77.1238 173.853 81.1679C174.852 85.016 173.327 88.57 171.803 92.0505C171.724 92.2466 171.645 92.4426 171.566 92.6387C173.196 86.9523 174.09 82.9327 170.383 76.3394ZM190.203 122.272C189.651 123.963 188.652 125.482 187.443 126.855C189.809 121.757 188.39 115.654 185.84 111.266C184.473 108.913 182.16 107.173 179.741 105.605C180.241 105.825 180.74 106.046 181.24 106.291C183.316 107.32 185.13 108.766 186.707 110.409C189.862 113.668 191.649 117.933 190.203 122.272Z" fill="#444444"/>
</svg>
